<?xml version="1.0" encoding="utf-8"?>
<svg width="800px" height="800px" viewBox="0 0 24 24" xmlns="http://www.w3.org/2000/svg">
    <defs>
        <linearGradient id="paint0_linear" x1="1.92667" y1="0" x2="19.7024" y2="29.0178" gradientUnits="userSpaceOnUse">
            <stop offset="0.259336" stop-color="#FFDB6E"/>
            <stop offset="1" stop-color="#FFBC5E"/>
        </linearGradient>
    </defs>
    <path fill="url(#paint0_linear)" d="M6,11a1,1,0,0,0-.895.553l-3,6c-.088.176-.239.9-1.075,4.2A1,1,0,0,0,2,23H22a1,1,0,0,0,.97-1.242c-.917-3.629-.976-4.006-1.075-4.2l-3-6A1,1,0,0,0,18,11H16a1,1,0,0,0,0,2h1.382l2,4H4.618l2-4H8a1,1,0,0,0,0-2Zm14.219,8,.5,2H3.281l.5-2ZM12,15a1,1,0,0,0,1-1V8.858a4,4,0,1,0-2,0V14A1,1,0,0,0,12,15ZM10,5a2,2,0,1,1,2,2A2,2,0,0,1,10,5Z"/>
</svg>
